<svg width="40" height="40" viewBox="0 0 40 40" fill="none" xmlns="http://www.w3.org/2000/svg">
<path d="M20 38C24.1644 38 28.1999 36.5561 31.4191 33.9142C34.6382 31.2723 36.8417 27.596 37.6541 23.5116C38.4665 19.4273 37.8376 15.1875 35.8746 11.5149C33.9115 7.8422 30.7357 4.96382 26.8883 3.37017C23.0409 1.77653 18.76 1.56622 14.7749 2.77508C10.7898 3.98394 7.34718 6.53717 5.03357 9.99974C2.71996 13.4623 1.67852 17.62 2.0867 21.7643C2.49488 25.9086 4.32743 29.7832 7.27209 32.7279M28 16L20.8041 24.6351C19.4929 26.2085 18.8374 26.9952 17.9562 27.0351C17.0751 27.0751 16.351 26.351 14.9028 24.9028L12 22" stroke="#D29A5A" stroke-width="4" stroke-linecap="round"/>
</svg>
