<svg width="35" height="34" viewBox="0 0 35 34" fill="none" xmlns="http://www.w3.org/2000/svg">
<path d="M2 26V20C2 15.2261 3.63303 10.6477 6.53985 7.27208C9.44666 3.89642 13.3891 2 17.5 2C21.6109 2 25.5533 3.89642 28.4602 7.27208C31.367 10.6477 33 15.2261 33 20V26M29.125 32C26.9849 32 25.25 30.2091 25.25 28V22C25.25 19.7909 26.9849 18 29.125 18C31.2651 18 33 19.7909 33 22V28C33 30.2091 31.2651 32 29.125 32ZM5.875 32C3.7349 32 2 30.2091 2 28V22C2 19.7909 3.7349 18 5.875 18C8.0151 18 9.75 19.7909 9.75 22V28C9.75 30.2091 8.0151 32 5.875 32Z" stroke="#D29A5A" stroke-width="4" stroke-linecap="round" stroke-linejoin="round"/>
</svg>
